<?xml version="1.0" encoding="UTF-8"?>
<!DOCTYPE svg PUBLIC "-//W3C//DTD SVG 1.0//EN" "http://www.w3.org/TR/2001/REC-SVG-20010904/DTD/svg10.dtd">
<!-- Creator: CorelDRAW X6 -->
<svg xmlns="http://www.w3.org/2000/svg" xml:space="preserve" width="472px" height="145px" version="1.0" style="shape-rendering:geometricPrecision; text-rendering:geometricPrecision; image-rendering:optimizeQuality; fill-rule:evenodd; clip-rule:evenodd"
viewBox="0 0 47200000 14499945"
 xmlns:xlink="http://www.w3.org/1999/xlink">
 <defs>
  <style type="text/css">
   <![CDATA[
    .fil3 {fill:none}
    .fil0 {fill:#0968A7}
    .fil1 {fill:#FEFEFE}
    .fil2 {fill:#0968A7;fill-rule:nonzero}
   ]]>
  </style>
 </defs>
 <g id="Слой_x0020_1">
  <metadata id="CorelCorpID_0Corel-Layer"/>
  <path class="fil0" d="M12488289 9963206l0 -6476468c0,-396851 -320316,-721655 -711852,-721655l-9662615 0c-391536,0 -711851,324804 -711851,721655l0 6476468c0,396969 320315,721654 711851,721654l9662615 0c391536,0 711852,-324685 711852,-721654z"/>
  <path class="fil1" d="M4229771 6129341c358347,-596222 1132325,-789214 1728664,-430985 9685,5905 19370,11929 28937,17953l-162284 270118c-9566,-6141 -19133,-12283 -28937,-18071 -447166,-268701 -1027678,-124016 -1296380,323269 -268701,447166 -124016,1027679 323269,1296380 447166,268701 1027678,124016 1296380,-323268l1868743 -3109966 3088706 5140520 -367324 0 -2721382 -4529063 -1598861 2660674 0 0c-358229,596340 -1132207,789332 -1728546,430985 -596222,-358229 -789214,-1132325 -430985,-1728546zm-719883 -432520c597166,-993782 1887286,-1315396 2881068,-718348 9803,5905 19370,11929 29055,17953l-162284 270000c-9567,-6024 -19252,-12047 -29055,-17953 -844608,-507638 -1941263,-234095 -2448784,610513 -507520,844726 -234095,1941381 610631,2448902 844608,507520 1941263,234095 2448784,-610631l1148860 -1911972 0 0 2108980 3510006 -367442 0 -1741538 -2898548 -878860 1462798c-597166,993663 -1887286,1315396 -2881068,718229 -993781,-597048 -1315395,-1887168 -718347,-2880949zm5730009 3598470l-1251734 -2083232 -518977 863742 0 0c-452009,752245 -1234963,1183348 -2050752,1219490l-225473 0c-404173,-18307 -809765,-134528 -1180986,-357520 -1192561,-716576 -1578546,-2264650 -861970,-3457211 716576,-1192561 2264650,-1578546 3457211,-861970 9803,5788 19370,11930 29055,17835l-162284 270001c-9567,-5906 -19252,-12048 -29055,-17953 -1043388,-626930 -2397996,-289135 -3024926,754253 -627049,1043506 -289253,2398114 754135,3025044 1043505,626931 2398114,289253 3025162,-754253l788860 -1312915 1619058 2694689 -367324 0zm-5370009 -3382210c477639,-795002 1509806,-1052364 2304807,-574608 9804,5788 19370,11812 28937,17835l-162165 270001c-9567,-6024 -19252,-12048 -29055,-17953 -645828,-388111 -1484412,-178937 -1872523,466890 -388229,646064 -179056,1484530 466890,1872641 645828,388111 1484412,179056 1872523,-466890l1508861 -2511028 0 0 2598902 4325322 -367442 0 -2231460 -3713864 0 0 -1238860 2061735c-477639,795120 -1509806,1052364 -2304807,574726 -795002,-477757 -1052364,-1509806 -574608,-2304807z"/>
  <path class="fil2" d="M16034791 6367924c-195473,78898 -418466,123544 -596812,123544 -222993,0 -445985,-72048 -583112,-202442 -130394,-123425 -216142,-325748 -216142,-555591 0,-246969 92599,-449410 216142,-572836 106300,-106417 281221,-205866 535041,-205866 246968,0 476811,89173 620906,168071l51496 -517914c-336142,-109843 -576379,-123544 -710080,-123544 -391063,0 -737481,99567 -967324,291615 -236693,198898 -404765,531733 -404765,953623 0,699687 435592,1238152 1409767,1238152 233268,0 418465,-27402 675827,-96024l-30944 -500788zm780709 555710l638033 0 0 -1927799 589962 0 0 -473268 -1817956 0 0 473268 589961 0 0 1927799zm1037955 0l648308 0 188623 -511064 898702 0 178347 511064 699804 0 -922679 -2401067 -782127 0 -908978 2401067zm1584688 -967325l-600238 0 308741 -939805 6851 0 284646 939805zm1552561 -1433742l0 435591c0,147520 -3543,308741 -17244,703229 -6850,181772 -10275,325867 -44527,507639 -13701,85748 -30945,150945 -96024,209174 -58347,51496 -120119,68622 -192166,68622 -37677,0 -89173,-6851 -126851,-17126l0 493938c85749,13700 192048,27401 267521,27401 243543,0 445985,-75354 562560,-205748 147401,-161221 185197,-439017 205748,-696261 17126,-243544 27520,-593505 27520,-785553l0 -288071 586536 0 0 1948232 637915 0 0 -2401067 -1810988 0zm2303626 2401067l977600 0c168071,0 445867,-13701 658584,-174922 178347,-133819 267520,-319016 267520,-565985 0,-301772 -120000,-487088 -233268,-583111 -222874,-185198 -552166,-178347 -744332,-178347l-288071 0 0 -898702 -638033 0 0 2401067zm638033 -1049648l212599 0c78897,0 205866,-3425 298465,54922 82323,51496 116575,133819 116575,233268 0,130394 -58347,198898 -99449,233268 -99449,78898 -260670,75472 -349843,75472l-178347 0 0 -596930zm1634766 1049648l638033 0 0 -1028978 754607 0 0 1028978 637915 0 0 -2401067 -637915 0 0 919253 -754607 0 0 -919253 -638033 0 0 2401067zm2265949 0l648308 0 188622 -511064 898703 0 178346 511064 699805 0 -922797 -2401067 -782009 0 -908978 2401067zm1584688 -967325l-600238 0 308741 -939805 6850 0 284647 939805zm3106422 -1433742l-761576 0c-528190,0 -734056,123425 -809529,181772 -120000,89173 -264095,267520 -264095,607205 0,143977 20551,308741 150945,449292 65197,72048 161221,133820 277796,164646l-572836 998152 713506 0 418465 -840356 209292 0 0 840356 638032 0 0 -2401067zm-638032 452835l0 655040 -164646 0c-75473,0 -212717,-10157 -301891,-89173 -78897,-72047 -92716,-171496 -92716,-240000 0,-89292 17244,-181890 113268,-253938 92598,-68622 219567,-71929 281339,-71929l164646 0zm2217877 -452835l0 435591c0,147520 -3425,308741 -17126,703229 -6968,181772 -10275,325867 -44645,507639 -13701,85748 -30827,150945 -96024,209174 -58347,51496 -120119,68622 -192048,68622 -37795,0 -89173,-6851 -126969,-17126l0 493938c85749,13700 192048,27401 267521,27401 243543,0 445985,-75354 562560,-205748 147520,-161221 185315,-439017 205866,-696261 17126,-243544 27402,-593505 27402,-785553l0 -288071 586536 0 0 1948232 638033 0 0 -2401067 -1811106 0zm2303626 2401067l765001 0 740789 -1618940 20669 0 -20669 589962 0 1028978 638033 0 0 -2401067 -764884 0 -740906 1619057 -20551 0 20551 -589961 0 -1029096 -638033 0 0 2401067zm2636461 0l637915 0 0 -1028978 754725 0 0 1028978 637915 0 0 -2401067 -637915 0 0 919253 -754725 0 0 -919253 -637915 0 0 2401067zm2523193 0l764884 0 740906 -1618940 20670 0 -20670 589962 0 1028978 638033 0 0 -2401067 -764883 0 -740907 1619057 -20669 0 20669 -589961 0 -1029096 -638033 0 0 2401067zm4478394 -2401067l-761576 0c-528190,0 -733939,123425 -809411,181772 -120118,89173 -264213,267520 -264213,607205 0,143977 20669,308741 150945,449292 65197,72048 161221,133820 277914,164646l-572836 998152 713387 0 418584 -840356 209173 0 0 840356 638033 0 0 -2401067zm-638033 452835l0 655040 -164646 0c-75354,0 -212599,-10157 -301772,-89173 -79016,-72047 -92717,-171496 -92717,-240000 0,-89292 17245,-181890 113268,-253938 92599,-68622 219449,-71929 281221,-71929l164646 0z"/>
  <path class="fil0" d="M14054905 9304386l0 -1414845 527482 0c107126,0 191575,13582 254173,40866 62126,27402 113150,69803 152953,127795 39803,57875 59764,121890 59764,191694 0,64842 -17126,123425 -51378,175512 -34606,51968 -82913,93543 -145512,125079 81024,24330 144685,66260 191221,125197 46653,58937 70157,131693 70157,218032 0,85512 -21141,160630 -63661,225591 -42284,64842 -98859,111614 -169371,140905 -70866,29292 -168071,44174 -291496,44174l-534332 0zm186497 -820041l303544 0c79724,0 136299,-4606 169724,-13465 48189,-13582 85276,-36260 111496,-68268 25867,-31889 38977,-75354 38977,-130393 0,-50670 -11929,-93190 -35433,-127087 -23859,-33898 -55276,-57284 -94725,-70158 -39567,-12874 -109961,-19488 -212008,-19488l-281575 0 0 428859zm0 653977l348898 0c76890,0 133583,-5905 170079,-17362 53032,-16772 93307,-44528 120827,-82677 27402,-38504 41339,-86929 41339,-144922 0,-53740 -13111,-98858 -39804,-136063 -26220,-37205 -61771,-64134 -106417,-81260 -44882,-17244 -115158,-25748 -210709,-25748l-324213 0 0 488032zm984332 166064l544135 -735120 -479647 -679725 223111 0 255355 361654c52559,74764 89173,132047 110787,172441 30237,-47598 67678,-100394 111497,-157323l281693 -376772 200788 0 -490395 665552 528544 749293 -228661 0 -354096 -504568c-19606,-27992 -39448,-58937 -59055,-92244 -30945,50669 -53740,85275 -67323,104409l-353622 492403 -223111 0zm1397837 -688702c0,-241064 64134,-426143 192874,-555592 128150,-129331 288308,-194173 479883,-194173 123898,0 236693,28937 338623,86575 102047,57992 182953,141968 242599,252283 59409,109961 89291,241418 89291,393544 0,209410 -57756,379962 -172914,511655 -127087,145276 -293268,218032 -498780,218032 -207048,0 -373583,-74410 -499962,-223583 -114330,-135001 -171614,-297639 -171614,-488741zm191221 2362c0,174567 46653,309567 139843,405709 92716,96142 206339,144213 339331,144213 136299,0 250630,-48307 342993,-145512 92362,-97205 138661,-240119 138661,-428505 0,-121535 -23976,-230197 -71338,-325984 -36615,-73111 -91654,-132048 -165355,-175867 -73701,-44173 -154134,-66260 -241300,-66260 -140315,0 -255709,48189 -346654,144685 -90827,96379 -136181,245552 -136181,447521zm1513349 -728505l853348 0 0 1248781 124252 0 0 496064 -164882 0 0 -330000 -927403 0 0 330000 -164883 0 0 -496064 107481 0c114803,-171142 172087,-518623 172087,-1041970l0 -206811zm666969 165945l-487678 0 0 72520c0,119173 -10393,282874 -31535,490630 -20669,207875 -63662,381143 -128622,519686l647835 0 0 -1082836zm531025 1248900l0 -1414845 186260 0 0 582875 729096 0 0 -582875 186378 0 0 1414845 -186378 0 0 -665907 -729096 0 0 665907 -186260 0zm1421695 -1414845l186378 0 0 604725 334253 0c122599,0 220630,11811 293623,35551 72756,23977 131456,68504 175630,133701 44173,65079 66496,141969 66496,229843 0,108662 -36614,204449 -110315,287127 -73347,82677 -211182,123898 -413151,123898l-532914 0 0 -1414845zm186378 1254805l339332 0c115157,0 199252,-19488 252638,-57992 53032,-38859 79606,-103111 79606,-192638 0,-58937 -15945,-107717 -47362,-145631 -31417,-38149 -71693,-63189 -120354,-74763 -48898,-11457 -134174,-17126 -255709,-17126l-248151 0 0 488150zm1130554 160040l0 -1414845 186496 0 0 1414845 -186496 0zm511890 0l0 -1414845 1013388 0 0 165945 -826891 0 0 434764 776694 0 0 165946 -776694 0 0 482126 860316 0 0 166064 -1046813 0zm1976342 -1414845l853230 0 0 1248781 124252 0 0 496064 -164882 0 0 -330000 -927403 0 0 330000 -164882 0 0 -496064 107480 0c114803,-171142 172205,-518623 172205,-1041970l0 -206811zm666733 165945l-487559 0 0 72520c0,119173 -10276,282874 -31536,490630 -20669,207875 -63661,381143 -128622,519686l647717 0 0 -1082836zm526182 1248900l0 -1414845 527482 0c107126,0 191575,13582 254291,40866 62008,27402 113032,69803 152953,127795 39804,57875 59646,121890 59646,191694 0,64842 -17126,123425 -51378,175512 -34606,51968 -82795,93543 -145394,125079 80906,24330 144685,66260 191221,125197 46654,58937 70158,131693 70158,218032 0,85512 -21142,160630 -63780,225591 -42284,64842 -98740,111614 -169370,140905 -70867,29292 -168072,44174 -291497,44174l-534332 0zm186497 -820041l303544 0c79724,0 136299,-4606 169842,-13465 48071,-13582 85158,-36260 111379,-68268 25984,-31889 39094,-75354 39094,-130393 0,-50670 -11929,-93190 -35433,-127087 -23858,-33898 -55394,-57284 -94843,-70158 -39449,-12874 -109842,-19488 -211890,-19488l-281693 0 0 428859zm0 653977l349016 0c76890,0 133465,-5905 170079,-17362 53032,-16772 93189,-44528 120709,-82677 27520,-38504 41457,-86929 41457,-144922 0,-53740 -13110,-98858 -39922,-136063 -26220,-37205 -61653,-64134 -106299,-81260 -45000,-17244 -115158,-25748 -210709,-25748l-324331 0 0 488032zm1130199 166064l0 -1414845 1013387 0 0 165945 -827009 0 0 434764 776812 0 0 165946 -776812 0 0 482126 860434 0 0 166064 -1046812 0zm1302285 0l0 -1414845 528899 0c124724,0 216378,8858 275669,27047 80906,24331 145394,69449 193702,135709 48071,66142 72401,147520 72401,243662 0,127087 -39449,230788 -117874,310866 -78543,80315 -214252,120591 -407127,120591l-359292 0 0 576970 -186378 0zm186378 -743033l362836 0c114331,0 198071,-21378 250984,-64252 53032,-42756 79252,-107363 79252,-193583 0,-55985 -13110,-103701 -38976,-143622 -26339,-40158 -57874,-67442 -94370,-82323 -37087,-14764 -104056,-22087 -200434,-22087l-359292 0 0 505867zm1122876 -671812l167363 0 0 1124647 750946 -1124647 186024 0 0 1414845 -167363 0 0 -1126301 -752127 1126301 -184843 0 0 -1414845z"/>
  <rect class="fil3" x="56" y="-59" width="47178864" height="14500063"/>
 </g>
</svg>
