<?xml version="1.0" encoding="UTF-8" standalone="no"?>
<svg
   xmlns:osb="http://www.openswatchbook.org/uri/2009/osb"
   xmlns:dc="http://purl.org/dc/elements/1.1/"
   xmlns:cc="http://creativecommons.org/ns#"
   xmlns:rdf="http://www.w3.org/1999/02/22-rdf-syntax-ns#"
   xmlns:svg="http://www.w3.org/2000/svg"
   xmlns="http://www.w3.org/2000/svg"
   xmlns:sodipodi="http://sodipodi.sourceforge.net/DTD/sodipodi-0.dtd"
   xmlns:inkscape="http://www.inkscape.org/namespaces/inkscape"
   version="1.0"
   width="1000"
   height="410"
   viewBox="0 0 800 328"
   preserveAspectRatio="xMidYMid meet"
   id="svg3336"
   inkscape:version="0.91 r13725"
   sodipodi:docname="logo.svg">
  <defs
     id="defs3362">
    <linearGradient
       id="linearGradient5608"
       osb:paint="solid">
      <stop
         style="stop-color:#000000;stop-opacity:1;"
         offset="0"
         id="stop5610" />
    </linearGradient>
    <filter
       inkscape:collect="always"
       style="color-interpolation-filters:sRGB"
       id="filter4164"
       x="-0.03150975"
       width="1.0630195"
       y="-0.019380925"
       height="1.0387619">
      <feGaussianBlur
         inkscape:collect="always"
         stdDeviation="14.272235"
         id="feGaussianBlur4166" />
    </filter>
  </defs>
  <sodipodi:namedview
     pagecolor="#ffffff"
     bordercolor="#666666"
     borderopacity="1"
     objecttolerance="10"
     gridtolerance="10"
     guidetolerance="10"
     inkscape:pageopacity="0"
     inkscape:pageshadow="2"
     inkscape:window-width="1366"
     inkscape:window-height="706"
     id="namedview3360"
     showgrid="false"
     inkscape:zoom="0.58388"
     inkscape:cx="444.00303"
     inkscape:cy="105.49598"
     inkscape:window-x="-8"
     inkscape:window-y="-8"
     inkscape:window-maximized="1"
     inkscape:current-layer="svg3336"
     units="px" />
  <metadata
     id="metadata3338">
Created by potrace 1.10, written by Peter Selinger 2001-2011
<rdf:RDF>
  <cc:Work
     rdf:about="">
    <dc:format>image/svg+xml</dc:format>
    <dc:type
       rdf:resource="http://purl.org/dc/dcmitype/StillImage" />
    <dc:title></dc:title>
  </cc:Work>
</rdf:RDF>
</metadata>
  <g
     transform="matrix(0.09493201,0,0,-0.09493201,1.7601985,278.49493)"
     id="g3340"
     style="fill:#adb0b3;fill-opacity:1;stroke:none">
    <path
       d="m 4325,2783 c -11,-3 -33,-11 -50,-18 -16,-7 -39,-15 -50,-18 -11,-3 -65,-22 -120,-42 -98,-36 -151,-54 -330,-115 -49,-17 -99,-35 -110,-40 -11,-5 -51,-19 -90,-31 -38,-12 -74,-26 -80,-31 -5,-4 -16,-8 -25,-8 -8,0 -28,-7 -43,-15 -15,-8 -43,-17 -63,-21 -19,-3 -37,-10 -40,-15 -3,-5 -12,-9 -21,-9 -8,0 -29,-6 -46,-13 -39,-17 -92,-36 -135,-48 l -32,-10 2,-1012 3,-1012 65,-6 c 36,-3 117,-11 180,-18 63,-6 185,-18 270,-27 85,-8 196,-19 245,-25 50,-6 142,-15 205,-19 63,-5 153,-14 200,-20 46,-6 90,-8 97,-6 11,4 13,244 11,1292 -2,848 -6,1288 -13,1289 -5,2 -19,0 -30,-2 z m -68,-1298 c 2,-654 -1,-1146 -6,-1154 -8,-12 -21,-12 -86,-2 -43,7 -128,17 -189,21 -142,11 -317,28 -429,41 -48,6 -139,14 -202,19 -66,4 -121,13 -130,20 -13,11 -15,125 -15,925 0,861 1,913 18,918 9,3 42,15 72,27 30,12 73,27 95,35 22,7 99,34 170,60 72,25 144,50 160,55 17,4 55,18 85,30 30,12 71,26 90,32 19,5 39,14 45,19 5,5 18,9 28,9 10,0 33,6 50,13 42,18 93,36 137,49 19,5 39,14 45,19 5,6 21,9 35,7 l 25,-3 2,-1140 z"
       id="path3342"
       style="fill:#adb0b3;fill-opacity:1"
       inkscape:connector-curvature="0" />
    <path
       d="m 4037,1516 c -32,-30 -34,-64 -7,-94 32,-34 76,-29 100,11 25,40 25,41 -2,71 -34,37 -60,40 -91,12 z"
       id="path3344"
       style="fill:#adb0b3;fill-opacity:1"
       inkscape:connector-curvature="0" />
    <path
       d="m 4485,2678 c -3,-7 -4,-553 -3,-1213 l 3,-1200 49,-3 c 27,-2 96,4 155,12 58,9 128,16 156,16 27,0 105,7 174,15 182,21 413,44 511,51 47,3 91,11 98,16 9,8 12,213 12,964 l 0,953 -33,16 c -18,8 -46,19 -62,25 -17,5 -75,25 -130,45 -55,20 -109,39 -120,42 -11,3 -34,11 -52,19 -17,8 -36,14 -42,14 -6,0 -19,4 -29,10 -9,5 -51,20 -92,34 -41,14 -120,41 -175,61 -177,64 -270,96 -290,102 -11,3 -34,11 -52,19 -39,17 -72,18 -78,2 z m 226,-1156 c 26,-22 30,-71 9,-98 -35,-41 -97,-38 -124,6 -43,73 48,146 115,92 z"
       id="path3346"
       style="fill:#d66a2b;fill-opacity:1"
       inkscape:connector-curvature="0" />
    <path
       d="m 2930,2084 c -8,-3 -24,-9 -35,-14 -11,-5 -42,-15 -70,-24 -27,-8 -90,-28 -140,-44 -49,-16 -137,-43 -195,-61 -58,-19 -143,-46 -190,-60 -47,-15 -132,-42 -190,-60 -58,-18 -125,-40 -150,-50 l -45,-17 -3,-694 c -1,-382 0,-705 3,-717 l 5,-23 528,0 c 290,0 533,4 540,8 10,7 12,190 10,883 l -3,874 -25,2 c -14,1 -32,0 -40,-3 z m -46,-153 c 10,-15 7,-1474 -2,-1483 -5,-5 -195,-9 -428,-9 l -419,0 0,616 0,616 25,14 c 14,7 79,30 145,50 66,20 129,40 140,44 11,5 67,23 125,41 218,68 296,93 330,105 42,16 77,18 84,6 z"
       id="path3348"
       style="fill:#adb0b3;fill-opacity:1;filter:url(#filter4164)"
       inkscape:connector-curvature="0" />
    <path
       d="m 5747,1994 c -4,-4 -7,-366 -7,-805 0,-750 1,-799 18,-807 25,-13 924,-13 940,0 9,8 12,152 12,659 0,575 -2,649 -16,663 -8,9 -22,16 -29,16 -8,0 -63,16 -122,35 -116,38 -227,73 -393,125 -58,18 -114,36 -125,41 -11,4 -54,17 -95,29 -41,12 -82,26 -91,30 -26,13 -84,22 -92,14 z"
       id="path3350"
       style="fill:#d66a2b;fill-opacity:1"
       inkscape:connector-curvature="0" />
    <path
       d="m 1700,1573 c -41,-13 -100,-31 -130,-40 -30,-8 -73,-21 -95,-28 -22,-7 -67,-21 -100,-30 -33,-9 -78,-23 -100,-30 -22,-7 -74,-23 -115,-35 -41,-12 -86,-25 -100,-30 -14,-4 -44,-13 -67,-19 -24,-7 -47,-20 -52,-30 -6,-11 -10,-208 -10,-509 l 0,-491 32,-6 c 18,-3 217,-4 442,-3 l 410,3 3,638 2,637 -22,-1 c -13,-1 -57,-12 -98,-26 z m 10,-151 c 6,-29 4,-971 -2,-978 -8,-7 -646,-6 -658,1 -6,4 -10,150 -10,399 0,362 1,394 18,409 17,16 109,49 172,62 19,4 41,11 50,15 8,4 42,15 75,24 33,9 81,24 106,32 26,7 52,14 59,14 7,0 26,6 43,14 40,17 107,34 127,32 8,0 17,-11 20,-24 z"
       id="path3352"
       style="fill:#adb0b3;fill-opacity:1"
       inkscape:connector-curvature="0" />
    <path
       d="m 6807,1513 c -4,-3 -7,-257 -7,-563 0,-434 3,-560 13,-568 8,-6 141,-10 374,-11 313,0 364,2 378,15 13,13 15,72 15,439 0,240 -4,434 -9,448 -7,17 -20,27 -43,32 -18,4 -51,12 -73,20 -22,7 -67,21 -100,30 -33,10 -71,21 -85,26 -14,4 -59,17 -100,29 -41,11 -95,27 -120,34 -25,8 -72,21 -105,31 -33,10 -75,24 -93,31 -38,16 -37,16 -45,7 z"
       id="path3354"
       style="fill:#d66a2b;fill-opacity:1"
       inkscape:connector-curvature="0" />
    <path
       d="m 780,1209 c -14,-6 -45,-17 -70,-24 -25,-7 -67,-20 -95,-28 -27,-8 -74,-22 -103,-30 -137,-41 -160,-48 -207,-63 -27,-8 -68,-19 -90,-25 -21,-5 -45,-15 -52,-21 -10,-8 -13,-85 -13,-348 0,-299 2,-339 16,-344 24,-9 657,-7 672,2 10,7 12,103 10,448 -3,431 -3,439 -23,441 -11,1 -31,-3 -45,-8 z M 738,761 c 1,-168 -2,-309 -6,-313 -10,-10 -445,-13 -461,-3 -15,8 -15,459 -1,486 6,11 21,19 35,19 13,0 39,6 57,14 18,7 60,21 93,31 108,31 159,47 195,60 19,8 46,13 60,12 l 25,-2 3,-304 z"
       id="path3356"
       style="fill:#adb0b3;fill-opacity:1"
       inkscape:connector-curvature="0" />
    <path
       d="m 7677,1124 c -4,-4 -7,-171 -7,-370 0,-279 3,-365 13,-371 12,-8 522,-13 545,-5 9,3 12,72 12,298 l 0,294 -27,6 c -16,3 -39,9 -53,14 -14,5 -59,18 -100,30 -41,12 -93,28 -115,35 -22,7 -69,21 -105,30 -36,9 -72,20 -80,25 -26,13 -76,21 -83,14 z"
       id="path3358"
       style="fill:#d66a2b;fill-opacity:1"
       inkscape:connector-curvature="0" />
  </g>
  <g
     transform="matrix(0.72228663,0,0,0.72228663,7.3955136,-34.981635)"
     style="font-style:normal;font-weight:normal;font-size:40px;line-height:125%;font-family:sans-serif;letter-spacing:0px;word-spacing:0px;fill:#000000;fill-opacity:1;stroke:none;stroke-width:1px;stroke-linecap:butt;stroke-linejoin:miter;stroke-opacity:1"
     id="flowRoot4152">
    <path
       d="m 45.201416,471.67301 q 0,0.32959 -0.230713,0.59326 -0.197754,0.26367 -0.692139,0.42847 -0.494384,0.16479 -1.318359,0.26367 -0.823975,0.0989 -2.076416,0.0989 -1.2854,0 -2.142334,-0.0989 -0.823975,-0.0989 -1.318359,-0.26367 -0.461426,-0.1648 -0.692139,-0.42847 -0.197754,-0.26367 -0.197754,-0.59326 l 0,-17.23755 -15.952148,0 0,17.23755 q 0,0.32959 -0.197754,0.59326 -0.197754,0.26367 -0.692139,0.42847 -0.494385,0.16479 -1.318359,0.26367 -0.823975,0.0989 -2.109375,0.0989 -1.252442,0 -2.109375,-0.0989 -0.823975,-0.0989 -1.31836,-0.26367 -0.494384,-0.1648 -0.725097,-0.42847 -0.197754,-0.26367 -0.197754,-0.59326 l 0,-40.27588 q 0,-0.32959 0.197754,-0.59326 0.230713,-0.26367 0.725097,-0.42847 0.494385,-0.16479 1.31836,-0.26367 0.856933,-0.0989 2.109375,-0.0989 1.2854,0 2.109375,0.0989 0.823974,0.0989 1.318359,0.26367 0.494385,0.1648 0.692139,0.42847 0.197754,0.26367 0.197754,0.59326 l 0,15.65552 15.952148,0 0,-15.65552 q 0,-0.32959 0.197754,-0.59326 0.230713,-0.26367 0.692139,-0.42847 0.494384,-0.16479 1.318359,-0.26367 0.856934,-0.0989 2.142334,-0.0989 1.252441,0 2.076416,0.0989 0.823975,0.0989 1.318359,0.26367 0.494385,0.1648 0.692139,0.42847 0.230713,0.26367 0.230713,0.59326 l 0,40.27588 z"
       style="fill:#adb0b3;fill-opacity:1"
       id="path4177" />
    <path
       d="m 79.050293,471.8378 q 0,0.46143 -0.32959,0.7251 -0.32959,0.26367 -1.054687,0.36255 -0.692139,0.13184 -2.076416,0.13184 -1.483155,0 -2.175293,-0.13184 -0.65918,-0.0989 -0.955811,-0.36255 -0.263672,-0.26367 -0.263672,-0.7251 l 0,-2.34009 q -1.812744,1.94458 -4.152832,3.03223 -2.307129,1.08765 -5.141601,1.08765 -2.340088,0 -4.317627,-0.62622 -1.94458,-0.59326 -3.394776,-1.77979 -1.417236,-1.21948 -2.208252,-2.99927 -0.791015,-1.77978 -0.791015,-4.15283 0,-2.5708 0.988769,-4.44946 1.021729,-1.91162 2.999268,-3.1311 2.010498,-1.25245 4.976806,-1.84571 2.966309,-0.59326 6.888428,-0.59326 l 2.867432,0 0,-1.77978 q 0,-1.38428 -0.296631,-2.40601 -0.263672,-1.05469 -0.922852,-1.74683 -0.62622,-0.69213 -1.713867,-1.02172 -1.054687,-0.32959 -2.636719,-0.32959 -2.076416,0 -3.724365,0.46142 -1.61499,0.46143 -2.867431,1.02173 -1.252442,0.5603 -2.109375,1.02173 -0.823975,0.46142 -1.351319,0.46142 -0.362549,0 -0.659179,-0.23071 -0.263672,-0.23071 -0.461426,-0.65918 -0.164795,-0.42847 -0.263672,-1.05469 -0.09888,-0.62622 -0.09888,-1.38427 0,-1.02173 0.164795,-1.61499 0.164795,-0.59327 0.626221,-1.05469 0.461425,-0.49439 1.61499,-1.05469 1.153564,-0.59326 2.702637,-1.08764 1.549072,-0.49439 3.361816,-0.79102 1.845703,-0.32959 3.790283,-0.32959 3.460693,0 5.899658,0.69214 2.471924,0.65918 4.053955,2.07641 1.582032,1.38428 2.307129,3.59253 0.725098,2.20826 0.725098,5.24048 l 0,19.77539 z m -8.140869,-12.59033 -3.164063,0 q -2.010498,0 -3.427734,0.29663 -1.417236,0.29663 -2.307129,0.88989 -0.889893,0.59327 -1.318359,1.4502 -0.395508,0.82397 -0.395508,1.91162 0,1.8457 1.153564,2.90039 1.186524,1.05469 3.26294,1.05469 1.746826,0 3.197021,-0.88989 1.483155,-0.8899 2.999268,-2.60376 l 0,-5.00977 z"
       style="fill:#adb0b3;fill-opacity:1"
       id="path4179" />
    <path
       d="m 130.46631,470.18985 q 0,1.31836 -0.5603,2.0105 -0.56031,0.65918 -1.74683,0.65918 l -38.496094,0 q -1.186524,0 -1.746826,-0.65918 -0.560303,-0.69214 -0.560303,-2.0105 l 0,-27.85034 q 0,-0.32959 0.197754,-0.5603 0.197754,-0.26367 0.692139,-0.42847 0.494384,-0.16479 1.2854,-0.23071 0.823975,-0.0989 2.043457,-0.0989 1.219482,0 1.977539,0.0989 0.791016,0.0659 1.219483,0.23071 0.461425,0.1648 0.62622,0.42847 0.197754,0.23071 0.197754,0.5603 l 0,23.59863 9.327397,0 0,-23.59863 q 0,-0.32959 0.16479,-0.5603 0.1648,-0.26367 0.5603,-0.42847 0.42847,-0.16479 1.18653,-0.23071 0.79101,-0.0989 1.97754,-0.0989 1.18652,0 1.97753,0.0989 0.82398,0.0659 1.25245,0.23071 0.46142,0.1648 0.65918,0.42847 0.19775,0.23071 0.19775,0.5603 l 0,23.59863 9.32739,0 0,-23.59863 q 0,-0.32959 0.1648,-0.5603 0.19775,-0.26367 0.65918,-0.42847 0.46142,-0.16479 1.21948,-0.23071 0.79102,-0.0989 1.97754,-0.0989 1.21948,0 2.0105,0.0989 0.82397,0.0659 1.2854,0.23071 0.49438,0.1648 0.69214,0.42847 0.23071,0.23071 0.23071,0.5603 l 0,27.85034 z"
       style="fill:#adb0b3;fill-opacity:1"
       id="path4181" />
    <path
       d="m 168.17139,471.8378 q 0,0.32959 -0.19776,0.56031 -0.16479,0.23071 -0.62622,0.3955 -0.46142,0.13184 -1.25244,0.19776 -0.75806,0.0659 -1.94458,0.0659 -1.18652,0 -2.0105,-0.0659 -0.79101,-0.0659 -1.31836,-0.19776 -0.49438,-0.16479 -0.72509,-0.3955 -0.19776,-0.23072 -0.19776,-0.56031 l 0,-13.11767 q 0,-1.38428 0.0659,-2.86743 0.0989,-1.48316 0.26367,-2.9004 -0.79101,1.38428 -1.71387,2.7356 -0.92285,1.31836 -1.87866,2.63672 l -9.92065,13.48022 q -0.29663,0.36255 -0.5603,0.62622 -0.26368,0.23072 -0.69214,0.39551 -0.39551,0.13184 -1.02173,0.1648 -0.62622,0.0659 -1.61499,0.0659 -1.18653,0 -1.94458,-0.0659 -0.7251,-0.0659 -1.18653,-0.19776 -0.42846,-0.16479 -0.62622,-0.3955 -0.16479,-0.26368 -0.16479,-0.59327 l 0,-29.49829 q 0,-0.29663 0.16479,-0.52734 0.19776,-0.26367 0.65918,-0.42847 0.49439,-0.16479 1.25244,-0.23071 0.79102,-0.0989 1.97754,-0.0989 2.34009,0 3.2959,0.32959 0.95581,0.32959 0.95581,0.95581 l 0,13.05176 q 0,1.35132 -0.0989,2.80151 -0.0989,1.4502 -0.26368,2.80152 0.79102,-1.31836 1.61499,-2.60376 0.82398,-1.31836 1.74683,-2.53784 l 10.01953,-13.51319 q 0.26367,-0.36255 0.5603,-0.59326 0.29664,-0.26367 0.7251,-0.39551 0.46143,-0.16479 1.08765,-0.23071 0.65918,-0.0659 1.68091,-0.0659 1.15356,0 1.91162,0.0659 0.75805,0.0659 1.18652,0.23071 0.46143,0.1648 0.62622,0.42847 0.1648,0.26367 0.1648,0.59326 l 0,29.49829 z"
       style="fill:#adb0b3;fill-opacity:1"
       id="path4183" />
    <path
       d="m 195.62622,482.48355 q 0,0.29664 -0.16479,0.49439 -0.1648,0.23071 -0.59327,0.36255 -0.42846,0.16479 -1.1206,0.23071 -0.65918,0.0989 -1.68091,0.0989 -1.05469,0 -1.74683,-0.0989 -0.69213,-0.0659 -1.1206,-0.23071 -0.42847,-0.13184 -0.59326,-0.36255 -0.1648,-0.19775 -0.1648,-0.49439 l 0,-14.73266 q 0,-0.98877 0.32959,-1.31836 0.32959,-0.36255 1.2854,-0.36255 l 1.61499,0 q 1.05469,-1.38428 1.97754,-3.1311 0.92285,-1.74683 1.71387,-4.31763 0.82397,-2.60376 1.48315,-6.19629 0.69214,-3.62549 1.2854,-8.66821 0.0659,-0.59326 0.19776,-1.05469 0.16479,-0.49438 0.42846,-0.82397 0.26368,-0.32959 0.65918,-0.49439 0.42847,-0.16479 1.02173,-0.16479 l 18.1604,0 q 1.18653,0 1.74683,0.69213 0.5603,0.65918 0.5603,1.97754 l 0,22.1814 3.36182,0 q 0.88989,0 1.25244,0.36255 0.39551,0.32959 0.39551,1.31836 l 0,14.73266 q 0,0.29664 -0.1648,0.49439 -0.16479,0.23071 -0.59326,0.36255 -0.42847,0.16479 -1.1206,0.23071 -0.69214,0.0989 -1.74683,0.0989 -1.02173,0 -1.71387,-0.0989 -0.69214,-0.0659 -1.1206,-0.23071 -0.39551,-0.13184 -0.59327,-0.36255 -0.16479,-0.19775 -0.16479,-0.49439 l 0,-9.62402 -23.07129,0 0,9.62402 z m 16.94092,-34.63989 -7.02027,0 q -0.5603,4.15283 -1.21948,7.1521 -0.65918,2.96631 -1.38427,5.10864 -0.7251,2.14234 -1.54908,3.52662 -0.79101,1.38427 -1.58203,2.43896 l 12.75513,0 0,-18.22632 z"
       style="fill:#adb0b3;fill-opacity:1"
       id="path4185" />
    <path
       d="m 258.0835,463.10367 q 0,2.53784 -0.95581,4.44946 -0.92286,1.91163 -2.83448,3.19703 -1.91162,1.25244 -4.77905,1.91162 -2.86743,0.65918 -6.75659,0.65918 -1.2854,0 -2.40601,-0.033 -1.08764,0 -2.14233,-0.033 -1.02173,-0.033 -2.07642,-0.0989 -1.02173,-0.0659 -2.20825,-0.19775 -1.54907,-0.13184 -2.20825,-0.92285 -0.65918,-0.79102 -0.65918,-2.37305 l 0,-25.34546 q 0,-1.51611 0.62622,-2.27417 0.62622,-0.79101 1.91162,-0.95581 0.82398,-0.0659 1.87866,-0.13184 1.08765,-0.0659 2.34009,-0.0989 1.25244,-0.0659 2.60376,-0.0989 1.35132,-0.033 2.7356,-0.033 3.52661,0 6.06445,0.49439 2.5708,0.49438 4.21875,1.51611 1.68091,0.98877 2.47192,2.47192 0.82398,1.4502 0.82398,3.42774 0,2.66968 -1.4502,4.44946 -1.41723,1.77979 -4.08691,2.40601 3.32886,0.59326 5.10864,2.5708 1.77979,1.94458 1.77979,5.04272 z m -9.09668,-12.98584 q 0,-0.88989 -0.32959,-1.58203 -0.29663,-0.69214 -0.98877,-1.15356 -0.69214,-0.49439 -1.84571,-0.7251 -1.1206,-0.26367 -2.73559,-0.26367 -1.25244,0 -2.37305,0.0659 -1.08765,0.0659 -1.91162,0.1648 l 0,7.41577 4.44946,0 q 2.80152,0 4.25171,-0.98877 1.48316,-1.02173 1.48316,-2.93335 z m 0.85693,12.95288 q 0,-1.05468 -0.36255,-1.8457 -0.32959,-0.79102 -1.15356,-1.31836 -0.79102,-0.52734 -2.10938,-0.75806 -1.2854,-0.26367 -3.09814,-0.26367 l -4.31763,0 0,8.4375 q 0.52734,0.0659 1.08765,0.13184 0.59326,0.033 1.18652,0.0659 0.59326,0.033 1.15356,0.0659 0.59327,0 1.05469,0 1.74683,0 2.99927,-0.29663 1.25244,-0.32959 2.04346,-0.92285 0.79101,-0.59326 1.15356,-1.41723 0.36255,-0.85694 0.36255,-1.87867 z"
       style="fill:#adb0b3;fill-opacity:1"
       id="path4187" />
    <path
       d="m 291.56982,456.18229 q 0,1.51611 -0.69213,2.24121 -0.65918,0.72509 -1.84571,0.72509 l -17.89673,0 q 0,1.87867 0.42847,3.42774 0.46143,1.51611 1.41724,2.60376 0.98877,1.05469 2.50488,1.61499 1.54907,0.5603 3.69141,0.5603 2.17529,0 3.82324,-0.29663 1.64795,-0.32959 2.83447,-0.69214 1.21948,-0.39551 2.0105,-0.69214 0.79101,-0.32959 1.2854,-0.32959 0.29663,0 0.49438,0.13184 0.19776,0.0989 0.32959,0.39551 0.13184,0.29663 0.1648,0.85693 0.0659,0.52734 0.0659,1.35132 0,0.7251 -0.033,1.25244 -0.033,0.49438 -0.0989,0.85693 -0.0659,0.36255 -0.19775,0.62622 -0.13184,0.23072 -0.36255,0.46143 -0.19776,0.23071 -1.15357,0.62622 -0.95581,0.39551 -2.43896,0.79102 -1.48316,0.36255 -3.39478,0.62622 -1.91162,0.29663 -4.08691,0.29663 -3.92212,0 -6.88843,-0.98877 -2.93335,-0.98877 -4.91089,-2.99927 -1.97754,-2.0105 -2.96631,-5.07568 -0.95581,-3.06519 -0.95581,-7.18506 0,-3.92212 1.02173,-7.05322 1.02173,-3.16407 2.96631,-5.33936 1.94458,-2.20825 4.71314,-3.36182 2.80151,-1.15356 6.29516,-1.15356 3.69141,0 6.29517,1.08765 2.63672,1.08764 4.31762,3.03222 1.68091,1.91162 2.47193,4.54834 0.79101,2.63672 0.79101,5.73487 l 0,1.31836 z m -8.04199,-2.37305 q 0.0989,-3.49365 -1.41723,-5.47119 -1.48316,-2.0105 -4.61426,-2.0105 -1.58203,0 -2.76856,0.59326 -1.15356,0.59326 -1.94458,1.61499 -0.75805,0.98877 -1.18652,2.37305 -0.39551,1.35132 -0.46143,2.90039 l 12.39258,0 z"
       style="fill:#adb0b3;fill-opacity:1"
       id="path4189" />
    <path
       d="m 328.02246,456.61075 q 0,3.92212 -0.85693,7.08618 -0.82398,3.13111 -2.43897,5.33936 -1.61499,2.20825 -4.02099,3.39477 -2.40601,1.18653 -5.50415,1.18653 -1.2854,0 -2.37305,-0.26367 -1.05469,-0.23072 -2.07642,-0.7251 -0.98877,-0.52735 -1.97754,-1.2854 -0.98877,-0.75806 -2.04345,-1.77979 l 0,13.84278 q 0,0.32959 -0.19776,0.59326 -0.19775,0.26367 -0.69214,0.42846 -0.46142,0.19776 -1.25244,0.29664 -0.79101,0.0989 -2.0105,0.0989 -1.21948,0 -2.01049,-0.0989 -0.79102,-0.0989 -1.2854,-0.29664 -0.46143,-0.16479 -0.65918,-0.42846 -0.19776,-0.26367 -0.19776,-0.59326 l 0,-41.0669 q 0,-0.32959 0.1648,-0.5603 0.16479,-0.26367 0.5603,-0.42847 0.42847,-0.16479 1.08765,-0.23071 0.69214,-0.0989 1.71386,-0.0989 0.98877,0 1.64795,0.0989 0.69214,0.0659 1.08765,0.23071 0.42847,0.1648 0.59326,0.42847 0.1648,0.23071 0.1648,0.5603 l 0,3.4607 q 1.2854,-1.31836 2.50488,-2.30713 1.25244,-1.02173 2.53784,-1.68091 1.2854,-0.69214 2.63672,-1.02173 1.38428,-0.32959 2.93335,-0.32959 3.22998,0 5.50415,1.2854 2.27417,1.25244 3.69141,3.46069 1.45019,2.20826 2.10937,5.1416 0.65918,2.93335 0.65918,6.26221 z m -8.63525,0.59326 q 0,-1.87866 -0.29663,-3.59253 -0.26368,-1.74682 -0.95581,-3.09814 -0.65918,-1.35132 -1.77979,-2.14233 -1.08765,-0.82398 -2.7356,-0.82398 -0.82397,0 -1.64794,0.26367 -0.79102,0.23072 -1.64795,0.79102 -0.82398,0.5603 -1.71387,1.45019 -0.88989,0.8899 -1.87866,2.20826 l 0,9.68994 q 1.74682,2.20825 3.32885,3.42773 1.58204,1.18653 3.2959,1.18653 1.61499,0 2.7356,-0.82398 1.15356,-0.82397 1.87866,-2.14233 0.7251,-1.35132 1.05469,-3.03223 0.36255,-1.68091 0.36255,-3.36182 z"
       style="fill:#adb0b3;fill-opacity:1"
       id="path4191" />
    <path
       d="m 363.94775,471.8378 q 0,0.32959 -0.19775,0.56031 -0.16479,0.23071 -0.62622,0.3955 -0.46143,0.13184 -1.25244,0.19776 -0.75806,0.0659 -1.94458,0.0659 -1.18653,0 -2.0105,-0.0659 -0.79102,-0.0659 -1.31836,-0.19776 -0.49438,-0.16479 -0.7251,-0.3955 -0.19775,-0.23072 -0.19775,-0.56031 l 0,-13.11767 q 0,-1.38428 0.0659,-2.86743 0.0989,-1.48316 0.26367,-2.9004 -0.79102,1.38428 -1.71387,2.7356 -0.92285,1.31836 -1.87866,2.63672 l -9.92065,13.48022 q -0.29664,0.36255 -0.56031,0.62622 -0.26367,0.23072 -0.69214,0.39551 -0.3955,0.13184 -1.02172,0.1648 -0.62623,0.0659 -1.615,0.0659 -1.18652,0 -1.94458,-0.0659 -0.72509,-0.0659 -1.18652,-0.19776 -0.42847,-0.16479 -0.62622,-0.3955 -0.16479,-0.26368 -0.16479,-0.59327 l 0,-29.49829 q 0,-0.29663 0.16479,-0.52734 0.19775,-0.26367 0.65918,-0.42847 0.49439,-0.16479 1.25244,-0.23071 0.79102,-0.0989 1.97754,-0.0989 2.34009,0 3.2959,0.32959 0.95581,0.32959 0.95581,0.95581 l 0,13.05176 q 0,1.35132 -0.0989,2.80151 -0.0989,1.4502 -0.26367,2.80152 0.79102,-1.31836 1.61499,-2.60376 0.82398,-1.31836 1.74683,-2.53784 l 10.01953,-13.51319 q 0.26367,-0.36255 0.5603,-0.59326 0.29663,-0.26367 0.7251,-0.39551 0.46142,-0.16479 1.08765,-0.23071 0.65918,-0.0659 1.6809,-0.0659 1.15357,0 1.91162,0.0659 0.75806,0.0659 1.18653,0.23071 0.46142,0.1648 0.62622,0.42847 0.16479,0.26367 0.16479,0.59326 l 0,29.49829 z"
       style="fill:#adb0b3;fill-opacity:1"
       id="path4193" />
    <path
       d="m 402.11426,456.28116 q 0,1.91162 -0.36255,2.66968 -0.36255,0.75806 -1.15357,0.75806 l -13.71093,0 q -0.82398,0 -1.18653,-0.75806 -0.36255,-0.79102 -0.36255,-2.66968 0,-1.8457 0.36255,-2.60376 0.36255,-0.75805 1.18653,-0.75805 l 13.71093,0 q 0.39551,0 0.65918,0.16479 0.29664,0.1648 0.49439,0.5603 0.19775,0.39551 0.26367,1.05469 0.0989,0.65918 0.0989,1.58203 z"
       style="fill:#adb0b3;fill-opacity:1"
       id="path4195" />
    <path
       d="m 454.91455,460.07145 q 0,2.27417 -0.62622,4.11987 -0.62622,1.8457 -1.74683,3.26294 -1.08764,1.41723 -2.63671,2.43896 -1.51612,1.02173 -3.36182,1.68091 -1.8457,0.65918 -3.95508,0.98877 -2.07642,0.29663 -4.64722,0.29663 l -11.33789,0 q -1.08764,0 -1.8457,-0.62622 -0.7251,-0.65918 -0.7251,-2.10937 l 0,-37.17774 q 0,-1.45019 0.7251,-2.07641 0.75806,-0.65918 1.8457,-0.65918 l 10.71167,0 q 3.92212,0 6.62476,0.65918 2.73559,0.65917 4.5813,2.01049 1.87866,1.31836 2.86743,3.36182 0.98877,2.04346 0.98877,4.81201 0,1.54907 -0.39551,2.93335 -0.39551,1.35132 -1.15356,2.47192 -0.75806,1.12061 -1.87867,1.97754 -1.08764,0.85694 -2.50488,1.38428 1.81275,0.32959 3.32886,1.15357 1.54907,0.82397 2.66968,2.14233 1.15356,1.2854 1.81274,3.03223 0.65918,1.74682 0.65918,3.92212 z M 443.7085,442.1088 q 0,-1.2854 -0.39551,-2.30713 -0.39551,-1.02173 -1.18653,-1.68091 -0.79101,-0.69214 -2.01049,-1.05469 -1.18653,-0.36254 -3.19702,-0.36254 l -4.38355,0 0,11.07421 4.84497,0 q 1.87866,0 2.99927,-0.42846 1.1206,-0.46143 1.8457,-1.21949 0.75806,-0.79101 1.12061,-1.81274 0.36255,-1.05469 0.36255,-2.20825 z m 2.20825,18.25928 q 0,-1.48316 -0.49439,-2.63672 -0.49438,-1.18653 -1.45019,-1.97754 -0.95581,-0.79102 -2.43897,-1.21948 -1.48315,-0.42847 -3.8562,-0.42847 l -5.1416,0 0,12.12891 6.26221,0 q 1.81274,0 3.03222,-0.36255 1.25245,-0.39551 2.14234,-1.12061 0.92285,-0.75806 1.41723,-1.8457 0.52735,-1.12061 0.52735,-2.53784 z"
       style="fill:#d66a2b;fill-opacity:1"
       id="path4197" />
    <path
       d="m 486.42334,471.8378 q 0,0.46143 -0.32959,0.7251 -0.32959,0.26367 -1.05469,0.36255 -0.69214,0.13184 -2.07641,0.13184 -1.48316,0 -2.1753,-0.13184 -0.65918,-0.0989 -0.95581,-0.36255 -0.26367,-0.26367 -0.26367,-0.7251 l 0,-2.34009 q -1.81274,1.94458 -4.15283,3.03223 -2.30713,1.08765 -5.1416,1.08765 -2.34009,0 -4.31763,-0.62622 -1.94458,-0.59326 -3.39477,-1.77979 -1.41724,-1.21948 -2.20826,-2.99927 -0.79101,-1.77978 -0.79101,-4.15283 0,-2.5708 0.98877,-4.44946 1.02173,-1.91162 2.99926,-3.1311 2.0105,-1.25245 4.97681,-1.84571 2.96631,-0.59326 6.88843,-0.59326 l 2.86743,0 0,-1.77978 q 0,-1.38428 -0.29663,-2.40601 -0.26367,-1.05469 -0.92285,-1.74683 -0.62622,-0.69213 -1.71387,-1.02172 -1.05469,-0.32959 -2.63672,-0.32959 -2.07641,0 -3.72436,0.46142 -1.61499,0.46143 -2.86743,1.02173 -1.25245,0.5603 -2.10938,1.02173 -0.82397,0.46142 -1.35132,0.46142 -0.36255,0 -0.65918,-0.23071 -0.26367,-0.23071 -0.46142,-0.65918 -0.1648,-0.42847 -0.26368,-1.05469 -0.0989,-0.62622 -0.0989,-1.38427 0,-1.02173 0.16479,-1.61499 0.1648,-0.59327 0.62622,-1.05469 0.46143,-0.49439 1.61499,-1.05469 1.15357,-0.59326 2.70264,-1.08764 1.54907,-0.49439 3.36182,-0.79102 1.8457,-0.32959 3.79028,-0.32959 3.46069,0 5.89966,0.69214 2.47192,0.65918 4.05395,2.07641 1.58203,1.38428 2.30713,3.59253 0.7251,2.20826 0.7251,5.24048 l 0,19.77539 z m -8.14087,-12.59033 -3.16406,0 q -2.0105,0 -3.42774,0.29663 -1.41723,0.29663 -2.30713,0.88989 -0.88989,0.59327 -1.31835,1.4502 -0.39551,0.82397 -0.39551,1.91162 0,1.8457 1.15356,2.90039 1.18653,1.05469 3.26294,1.05469 1.74683,0 3.19702,-0.88989 1.48316,-0.8899 2.99927,-2.60376 l 0,-5.00977 z"
       style="fill:#d66a2b;fill-opacity:1"
       id="path4199" />
    <path
       d="m 537.83936,470.18985 q 0,1.31836 -0.56031,2.0105 -0.5603,0.65918 -1.74682,0.65918 l -38.4961,0 q -1.18652,0 -1.74682,-0.65918 -0.56031,-0.69214 -0.56031,-2.0105 l 0,-27.85034 q 0,-0.32959 0.19776,-0.5603 0.19775,-0.26367 0.69214,-0.42847 0.49438,-0.16479 1.2854,-0.23071 0.82397,-0.0989 2.04345,-0.0989 1.21949,0 1.97754,0.0989 0.79102,0.0659 1.21949,0.23071 0.46142,0.1648 0.62622,0.42847 0.19775,0.23071 0.19775,0.5603 l 0,23.59863 9.32739,0 0,-23.59863 q 0,-0.32959 0.1648,-0.5603 0.16479,-0.26367 0.5603,-0.42847 0.42847,-0.16479 1.18652,-0.23071 0.79102,-0.0989 1.97754,-0.0989 1.18653,0 1.97754,0.0989 0.82398,0.0659 1.25244,0.23071 0.46143,0.1648 0.65918,0.42847 0.19776,0.23071 0.19776,0.5603 l 0,23.59863 9.32739,0 0,-23.59863 q 0,-0.32959 0.16479,-0.5603 0.19776,-0.26367 0.65918,-0.42847 0.46143,-0.16479 1.21949,-0.23071 0.79101,-0.0989 1.97754,-0.0989 1.21948,0 2.01049,0.0989 0.82398,0.0659 1.2854,0.23071 0.49439,0.1648 0.69214,0.42847 0.23072,0.23071 0.23072,0.5603 l 0,27.85034 z"
       style="fill:#d66a2b;fill-opacity:1"
       id="path4201" />
    <path
       d="m 571.32568,471.8378 q 0,0.46143 -0.32959,0.7251 -0.32959,0.26367 -1.05468,0.36255 -0.69214,0.13184 -2.07642,0.13184 -1.48315,0 -2.17529,-0.13184 -0.65918,-0.0989 -0.95581,-0.36255 -0.26368,-0.26367 -0.26368,-0.7251 l 0,-2.34009 q -1.81274,1.94458 -4.15283,3.03223 -2.30713,1.08765 -5.1416,1.08765 -2.34009,0 -4.31763,-0.62622 -1.94458,-0.59326 -3.39477,-1.77979 -1.41724,-1.21948 -2.20825,-2.99927 -0.79102,-1.77978 -0.79102,-4.15283 0,-2.5708 0.98877,-4.44946 1.02173,-1.91162 2.99927,-3.1311 2.0105,-1.25245 4.97681,-1.84571 2.9663,-0.59326 6.88842,-0.59326 l 2.86743,0 0,-1.77978 q 0,-1.38428 -0.29663,-2.40601 -0.26367,-1.05469 -0.92285,-1.74683 -0.62622,-0.69213 -1.71387,-1.02172 -1.05468,-0.32959 -2.63671,-0.32959 -2.07642,0 -3.72437,0.46142 -1.61499,0.46143 -2.86743,1.02173 -1.25244,0.5603 -2.10938,1.02173 -0.82397,0.46142 -1.35131,0.46142 -0.36255,0 -0.65918,-0.23071 -0.26368,-0.23071 -0.46143,-0.65918 -0.16479,-0.42847 -0.26367,-1.05469 -0.0989,-0.62622 -0.0989,-1.38427 0,-1.02173 0.1648,-1.61499 0.16479,-0.59327 0.62622,-1.05469 0.46142,-0.49439 1.61499,-1.05469 1.15356,-0.59326 2.70263,-1.08764 1.54908,-0.49439 3.36182,-0.79102 1.8457,-0.32959 3.79028,-0.32959 3.4607,0 5.89966,0.69214 2.47193,0.65918 4.05396,2.07641 1.58203,1.38428 2.30713,3.59253 0.72509,2.20826 0.72509,5.24048 l 0,19.77539 z m -8.14087,-12.59033 -3.16406,0 q -2.0105,0 -3.42773,0.29663 -1.41724,0.29663 -2.30713,0.88989 -0.88989,0.59327 -1.31836,1.4502 -0.39551,0.82397 -0.39551,1.91162 0,1.8457 1.15357,2.90039 1.18652,1.05469 3.26294,1.05469 1.74682,0 3.19702,-0.88989 1.48315,-0.8899 2.99926,-2.60376 l 0,-5.00977 z"
       style="fill:#d66a2b;fill-opacity:1"
       id="path4203" />
    <path
       d="m 617.17163,467.05875 q 0,0.85693 -0.0659,1.4502 -0.033,0.5603 -0.13183,0.95581 -0.0659,0.3955 -0.19776,0.65918 -0.0989,0.23071 -0.49438,0.62622 -0.39551,0.36255 -1.35132,0.92285 -0.95581,0.52734 -2.17529,0.95581 -1.21949,0.42847 -2.66968,0.69214 -1.41724,0.26367 -2.93335,0.26367 -3.39478,0 -6.03149,-1.05469 -2.60376,-1.05469 -4.38355,-3.09814 -1.77978,-2.07642 -2.70264,-5.04273 -0.88989,-2.96631 -0.88989,-6.78955 0,-4.4165 1.08765,-7.61352 1.1206,-3.22998 3.09814,-5.33936 1.97754,-2.10937 4.68018,-3.1311 2.70263,-1.02173 5.93262,-1.02173 1.31835,0 2.5708,0.23071 1.2854,0.23071 2.37304,0.62622 1.12061,0.39551 1.97754,0.88989 0.88989,0.49439 1.25244,0.85694 0.36255,0.36255 0.49439,0.62622 0.16479,0.23071 0.23071,0.62622 0.0989,0.39551 0.13184,0.98877 0.0659,0.5603 0.0659,1.38428 0,1.91162 -0.32958,2.70263 -0.32959,0.75806 -0.85694,0.75806 -0.5603,0 -1.18652,-0.46143 -0.62622,-0.46142 -1.48316,-1.02172 -0.85693,-0.56031 -2.04345,-1.02173 -1.18653,-0.46143 -2.83448,-0.46143 -3.22998,0 -4.94384,2.50488 -1.71387,2.47193 -1.71387,7.28394 0,2.37305 0.42847,4.18579 0.42846,1.81274 1.25244,3.03223 0.85693,1.21948 2.10937,1.8457 1.2854,0.59326 2.96631,0.59326 1.71387,0 2.93335,-0.49438 1.25244,-0.52735 2.17529,-1.15357 0.92286,-0.62622 1.54908,-1.1206 0.62622,-0.52735 1.05468,-0.52735 0.29663,0 0.49439,0.1648 0.19775,0.16479 0.29663,0.62622 0.13183,0.42847 0.19775,1.1206 0.0659,0.69214 0.0659,1.77979 z"
       style="fill:#d66a2b;fill-opacity:1"
       id="path4205" />
    <path
       d="m 644.95605,444.87735 q 0,1.08765 -0.0989,1.81275 -0.0659,0.7251 -0.23072,1.15356 -0.16479,0.42847 -0.42846,0.59326 -0.23071,0.1648 -0.52735,0.1648 l -7.41577,0 0,23.13721 q 0,0.32959 -0.19775,0.59326 -0.19776,0.23071 -0.65918,0.39551 -0.46143,0.16479 -1.2854,0.23071 -0.79102,0.0989 -2.0105,0.0989 -1.18652,0 -1.97754,-0.0989 -0.79101,-0.0659 -1.2854,-0.23071 -0.46142,-0.1648 -0.65918,-0.39551 -0.16479,-0.26367 -0.16479,-0.59326 l 0,-23.13721 -7.41577,0 q -0.32959,0 -0.59327,-0.1648 -0.23071,-0.19775 -0.3955,-0.62622 -0.1648,-0.42846 -0.26368,-1.18652 -0.0659,-0.75806 -0.0659,-1.8457 0,-0.98877 0.0989,-1.64795 0.0989,-0.69214 0.26367,-1.12061 0.1648,-0.42846 0.39551,-0.59326 0.23072,-0.19775 0.56031,-0.19775 l 23.07128,0 q 0.29664,0 0.52735,0.19775 0.26367,0.1648 0.42846,0.59326 0.1648,0.42847 0.23072,1.15357 0.0989,0.69214 0.0989,1.71386 z"
       style="fill:#d66a2b;fill-opacity:1"
       id="path4207" />
    <path
       d="m 674.55322,471.8378 q 0,0.46143 -0.32959,0.7251 -0.32959,0.26367 -1.05468,0.36255 -0.69214,0.13184 -2.07642,0.13184 -1.48316,0 -2.17529,-0.13184 -0.65918,-0.0989 -0.95581,-0.36255 -0.26368,-0.26367 -0.26368,-0.7251 l 0,-2.34009 q -1.81274,1.94458 -4.15283,3.03223 -2.30713,1.08765 -5.1416,1.08765 -2.34009,0 -4.31763,-0.62622 -1.94458,-0.59326 -3.39477,-1.77979 -1.41724,-1.21948 -2.20825,-2.99927 -0.79102,-1.77978 -0.79102,-4.15283 0,-2.5708 0.98877,-4.44946 1.02173,-1.91162 2.99927,-3.1311 2.0105,-1.25245 4.9768,-1.84571 2.96631,-0.59326 6.88843,-0.59326 l 2.86743,0 0,-1.77978 q 0,-1.38428 -0.29663,-2.40601 -0.26367,-1.05469 -0.92285,-1.74683 -0.62622,-0.69213 -1.71387,-1.02172 -1.05468,-0.32959 -2.63671,-0.32959 -2.07642,0 -3.72437,0.46142 -1.61499,0.46143 -2.86743,1.02173 -1.25244,0.5603 -2.10938,1.02173 -0.82397,0.46142 -1.35132,0.46142 -0.36254,0 -0.65917,-0.23071 -0.26368,-0.23071 -0.46143,-0.65918 -0.1648,-0.42847 -0.26367,-1.05469 -0.0989,-0.62622 -0.0989,-1.38427 0,-1.02173 0.1648,-1.61499 0.16479,-0.59327 0.62622,-1.05469 0.46142,-0.49439 1.61499,-1.05469 1.15356,-0.59326 2.70263,-1.08764 1.54908,-0.49439 3.36182,-0.79102 1.8457,-0.32959 3.79028,-0.32959 3.4607,0 5.89966,0.69214 2.47192,0.65918 4.05396,2.07641 1.58203,1.38428 2.30712,3.59253 0.7251,2.20826 0.7251,5.24048 l 0,19.77539 z m -8.14087,-12.59033 -3.16406,0 q -2.0105,0 -3.42773,0.29663 -1.41724,0.29663 -2.30713,0.88989 -0.88989,0.59327 -1.31836,1.4502 -0.39551,0.82397 -0.39551,1.91162 0,1.8457 1.15356,2.90039 1.18653,1.05469 3.26294,1.05469 1.74683,0 3.19703,-0.88989 1.48315,-0.8899 2.99926,-2.60376 l 0,-5.00977 z"
       style="fill:#d66a2b;fill-opacity:1"
       id="path4209" />
    <path
       d="m 710.05005,471.73893 q 0,0.32959 -0.19776,0.59326 -0.19775,0.23071 -0.65917,0.39551 -0.46143,0.16479 -1.28541,0.23071 -0.79101,0.0989 -1.97753,0.0989 -1.21949,0 -2.04346,-0.0989 -0.79102,-0.0659 -1.2854,-0.23071 -0.46143,-0.1648 -0.65918,-0.39551 -0.1648,-0.26367 -0.1648,-0.59326 l 0,-23.76343 -5.96557,0 q -0.52735,5.17456 -1.31836,9.09668 -0.75806,3.88916 -1.77979,6.72363 -1.02173,2.83447 -2.27417,4.71314 -1.21948,1.8457 -2.70263,2.93334 -1.48316,1.08765 -3.22998,1.54908 -1.71387,0.46142 -3.62549,0.46142 -0.46143,0 -0.75806,-0.13183 -0.29663,-0.13184 -0.46142,-0.49439 -0.1648,-0.39551 -0.23072,-1.1206 -0.0659,-0.7251 -0.0659,-1.91162 0,-1.21949 0.033,-1.97754 0.0659,-0.75806 0.19776,-1.15357 0.13183,-0.42846 0.36255,-0.5603 0.23071,-0.13184 0.5603,-0.13184 0.92285,0 1.74682,-0.36255 0.85694,-0.3955 1.58204,-1.35131 0.75805,-0.98877 1.41723,-2.5708 0.65918,-1.61499 1.21948,-4.05396 0.56031,-2.43896 1.05469,-5.80078 0.49439,-3.39478 0.95581,-7.8772 0.0659,-1.35132 0.56031,-2.0105 0.52734,-0.65918 1.6809,-0.65918 l 17.0398,0 q 1.15356,0 1.71387,0.65918 0.5603,0.65918 0.5603,2.0105 l 0,27.78443 z"
       style="fill:#d66a2b;fill-opacity:1"
       id="path4211" />
    <path
       d="m 746.23901,461.85123 q 0,2.60376 -0.98877,4.77905 -0.95581,2.14234 -2.9663,3.69141 -2.0105,1.51611 -5.07569,2.37305 -3.03222,0.82397 -7.18506,0.82397 -1.08764,0 -2.24121,-0.033 -1.15356,0 -2.27417,-0.0659 -1.1206,-0.0329 -2.20825,-0.0989 -1.05469,-0.0659 -1.97754,-0.1648 -1.58203,-0.16479 -2.30713,-0.95581 -0.69214,-0.79101 -0.69214,-2.406 l 0,-27.45484 q 0,-0.32959 0.19776,-0.5603 0.19775,-0.26367 0.65918,-0.42847 0.49438,-0.16479 1.2854,-0.23071 0.79101,-0.0989 1.97754,-0.0989 1.21948,0 2.01049,0.0989 0.79102,0.0659 1.25245,0.23071 0.49438,0.1648 0.69214,0.42847 0.23071,0.23071 0.23071,0.5603 l 0,9.06372 q 1.1206,-0.0989 2.43896,-0.16479 1.31836,-0.0659 2.70264,-0.0659 3.72436,0 6.45996,0.75806 2.7356,0.72509 4.48242,2.10937 1.77979,1.38428 2.63672,3.36182 0.88989,1.94458 0.88989,4.44946 z m -8.73413,0.46143 q 0,-1.15357 -0.36255,-2.04346 -0.36254,-0.92285 -1.18652,-1.54907 -0.79102,-0.65918 -2.07642,-0.98877 -1.25244,-0.32959 -3.09814,-0.32959 -1.15356,0 -2.24121,0.0659 -1.08765,0.0329 -1.91162,0.0989 l 0,9.49219 q 0.95581,0.0989 2.0105,0.16479 1.08764,0.0659 2.30712,0.0659 3.36182,0 4.94385,-1.31836 1.61499,-1.31836 1.61499,-3.65844 z"
       style="fill:#d66a2b;fill-opacity:1"
       id="path4213" />
    <path
       d="m 780.15381,471.73893 q 0,0.32959 -0.19776,0.59326 -0.19775,0.23071 -0.65918,0.39551 -0.46142,0.16479 -1.2854,0.23071 -0.79101,0.0989 -1.97753,0.0989 -1.21949,0 -2.04346,-0.0989 -0.79102,-0.0659 -1.25244,-0.23071 -0.46143,-0.1648 -0.65918,-0.39551 -0.19776,-0.26367 -0.19776,-0.59326 l 0,-11.56861 -11.89819,0 0,11.56861 q 0,0.32959 -0.19775,0.59326 -0.19776,0.23071 -0.69214,0.39551 -0.46143,0.16479 -1.25244,0.23071 -0.79102,0.0989 -2.0105,0.0989 -1.21948,0 -2.0105,-0.0989 -0.79102,-0.0659 -1.2854,-0.23071 -0.46143,-0.1648 -0.65918,-0.39551 -0.19775,-0.26367 -0.19775,-0.59326 l 0,-29.39942 q 0,-0.32959 0.19775,-0.5603 0.19775,-0.26367 0.65918,-0.42847 0.49438,-0.16479 1.2854,-0.23071 0.79102,-0.0989 2.0105,-0.0989 1.21948,0 2.0105,0.0989 0.79101,0.0659 1.25244,0.23071 0.49438,0.1648 0.69214,0.42847 0.19775,0.23071 0.19775,0.5603 l 0,11.0083 11.89819,0 0,-11.0083 q 0,-0.32959 0.19776,-0.5603 0.19775,-0.26367 0.65918,-0.42847 0.46142,-0.16479 1.25244,-0.23071 0.82397,-0.0989 2.04346,-0.0989 1.18652,0 1.97753,0.0989 0.82398,0.0659 1.2854,0.23071 0.46143,0.1648 0.65918,0.42847 0.19776,0.23071 0.19776,0.5603 l 0,29.39942 z"
       style="fill:#d66a2b;fill-opacity:1"
       id="path4215" />
    <path
       d="m 813.5083,471.8378 q 0,0.46143 -0.32959,0.7251 -0.32959,0.26367 -1.05469,0.36255 -0.69214,0.13184 -2.07641,0.13184 -1.48316,0 -2.1753,-0.13184 -0.65918,-0.0989 -0.95581,-0.36255 -0.26367,-0.26367 -0.26367,-0.7251 l 0,-2.34009 q -1.81274,1.94458 -4.15283,3.03223 -2.30713,1.08765 -5.1416,1.08765 -2.34009,0 -4.31763,-0.62622 -1.94458,-0.59326 -3.39477,-1.77979 -1.41724,-1.21948 -2.20826,-2.99927 -0.79101,-1.77978 -0.79101,-4.15283 0,-2.5708 0.98877,-4.44946 1.02173,-1.91162 2.99927,-3.1311 2.01049,-1.25245 4.9768,-1.84571 2.96631,-0.59326 6.88843,-0.59326 l 2.86743,0 0,-1.77978 q 0,-1.38428 -0.29663,-2.40601 -0.26367,-1.05469 -0.92285,-1.74683 -0.62622,-0.69213 -1.71387,-1.02172 -1.05469,-0.32959 -2.63672,-0.32959 -2.07641,0 -3.72436,0.46142 -1.61499,0.46143 -2.86743,1.02173 -1.25245,0.5603 -2.10938,1.02173 -0.82397,0.46142 -1.35132,0.46142 -0.36255,0 -0.65918,-0.23071 -0.26367,-0.23071 -0.46142,-0.65918 -0.1648,-0.42847 -0.26367,-1.05469 -0.0989,-0.62622 -0.0989,-1.38427 0,-1.02173 0.16479,-1.61499 0.1648,-0.59327 0.62622,-1.05469 0.46143,-0.49439 1.61499,-1.05469 1.15357,-0.59326 2.70264,-1.08764 1.54907,-0.49439 3.36182,-0.79102 1.8457,-0.32959 3.79028,-0.32959 3.46069,0 5.89966,0.69214 2.47192,0.65918 4.05395,2.07641 1.58204,1.38428 2.30713,3.59253 0.7251,2.20826 0.7251,5.24048 l 0,19.77539 z m -8.14087,-12.59033 -3.16406,0 q -2.0105,0 -3.42774,0.29663 -1.41723,0.29663 -2.30712,0.88989 -0.8899,0.59327 -1.31836,1.4502 -0.39551,0.82397 -0.39551,1.91162 0,1.8457 1.15356,2.90039 1.18653,1.05469 3.26294,1.05469 1.74683,0 3.19702,-0.88989 1.48316,-0.8899 2.99927,-2.60376 l 0,-5.00977 z"
       style="fill:#d66a2b;fill-opacity:1"
       id="path4217" />
    <path
       d="m 847.09351,471.73893 q 0,0.36254 -0.1648,0.62622 -0.13184,0.23071 -0.59326,0.3955 -0.42847,0.1648 -1.25244,0.23072 -0.79102,0.0659 -2.10938,0.0659 -1.18652,0 -1.97754,-0.0659 -0.79101,-0.0659 -1.2854,-0.23072 -0.46142,-0.16479 -0.65918,-0.3955 -0.16479,-0.26368 -0.16479,-0.62622 l 0,-11.10718 -2.17529,0 q -1.51612,0 -2.40601,0.29663 -0.88989,0.26367 -1.64795,0.95581 -0.7251,0.65918 -1.35132,1.77978 -0.62622,1.08765 -1.25244,2.76856 l -1.94458,5.04272 q -0.19775,0.49439 -0.49438,0.82398 -0.26368,0.29663 -0.82398,0.46142 -0.52734,0.1648 -1.38428,0.23072 -0.85693,0.0659 -2.17529,0.0659 -1.15356,0 -1.94458,-0.033 -0.79101,-0.033 -1.2854,-0.13184 -0.49438,-0.0989 -0.7251,-0.29663 -0.19775,-0.19775 -0.19775,-0.5603 0,-0.36255 0.23071,-1.02173 0.26367,-0.69214 0.95581,-2.20825 l 2.0105,-4.64722 q 0.88989,-2.04346 2.17529,-3.42773 1.2854,-1.41724 2.93335,-2.07642 -3.09814,-0.7251 -4.91089,-2.66968 -1.77978,-1.97754 -1.77978,-5.1416 0,-2.34009 0.92285,-4.18579 0.95581,-1.87866 2.80151,-3.16406 1.87867,-1.2854 4.64722,-1.97754 2.76856,-0.69214 6.427,-0.69214 1.02173,0 2.24121,0.033 1.25245,0.033 2.50489,0.0989 1.2854,0.0659 2.50488,0.1648 1.25244,0.0659 2.20825,0.16479 1.08765,0.0659 1.61499,0.75806 0.52735,0.65918 0.52735,1.74683 l 0,27.94922 z m -8.20679,-24.94996 q -0.92285,-0.16479 -1.91162,-0.23071 -0.98877,-0.0659 -1.84571,-0.0659 -1.74682,0 -2.93335,0.32959 -1.15356,0.32959 -1.87866,0.92286 -0.72509,0.59326 -1.05468,1.41723 -0.29664,0.82398 -0.29664,1.77979 0,1.02173 0.32959,1.8457 0.36255,0.79102 1.08765,1.35132 0.75806,0.52734 1.87866,0.82397 1.15357,0.26367 3.06519,0.26367 l 3.55957,0 0,-8.4375 z"
       style="fill:#d66a2b;fill-opacity:1"
       id="path4219" />
    <path
       d="m 893.20312,463.59806 q 0,2.43896 -1.02172,4.31762 -1.02173,1.84571 -2.86744,3.13111 -1.8457,1.2854 -4.48242,1.91162 -2.60376,0.65918 -5.8667,0.65918 -1.6809,0 -3.22998,-0.26367 -1.54907,-0.23072 -2.86743,-0.59327 -1.2854,-0.3955 -2.14233,-0.79101 -0.85694,-0.42847 -1.25244,-0.7251 -0.36255,-0.32959 -0.56031,-0.62622 -0.16479,-0.32959 -0.26367,-0.7251 -0.0989,-0.39551 -0.13183,-0.95581 -0.033,-0.59326 -0.033,-1.41723 0,-0.75806 0.0659,-1.21949 0.0659,-0.46142 0.1648,-0.75805 0.13184,-0.29663 0.29663,-0.39551 0.1648,-0.13184 0.39551,-0.13184 0.42847,0 1.08764,0.42847 0.69214,0.39551 1.71387,0.88989 1.05469,0.46143 2.53784,0.88989 1.51612,0.42847 3.62549,0.42847 1.4502,0 2.53784,-0.29663 1.12061,-0.29663 1.84571,-0.82397 0.75805,-0.56031 1.1206,-1.35132 0.39551,-0.79102 0.39551,-1.77979 0,-0.92285 -0.36255,-1.64795 -0.36255,-0.72509 -1.21948,-1.21948 -0.82398,-0.52734 -2.20825,-0.79101 -1.35132,-0.26368 -3.32886,-0.26368 l -3.16406,0 q -0.42847,0 -0.69214,-0.13183 -0.26367,-0.1648 -0.42847,-0.49439 -0.16479,-0.32959 -0.23071,-0.88989 -0.033,-0.5603 -0.033,-1.35132 0,-0.75805 0.0659,-1.25244 0.0659,-0.52734 0.19775,-0.82397 0.1648,-0.29663 0.39551,-0.42847 0.26367,-0.13184 0.62622,-0.13184 l 3.06519,0 q 1.77978,0 3.06518,-0.26367 1.2854,-0.26367 2.10938,-0.75806 0.82397,-0.52734 1.18652,-1.25244 0.39551,-0.75805 0.39551,-1.74682 0,-0.85694 -0.36255,-1.51612 -0.36255,-0.69213 -1.02173,-1.1206 -0.65918,-0.46143 -1.61499,-0.65918 -0.92285,-0.23071 -2.04346,-0.23071 -1.87866,0 -3.36181,0.42846 -1.4502,0.39551 -2.53785,0.8899 -1.08764,0.49438 -1.81274,0.88989 -0.69214,0.39551 -1.05469,0.39551 -0.19775,0 -0.36255,-0.0659 -0.16479,-0.0989 -0.32959,-0.36255 -0.13183,-0.29663 -0.23071,-0.79102 -0.0659,-0.49438 -0.0659,-1.31836 0,-1.2854 0.1648,-2.04345 0.19775,-0.79102 0.59326,-1.18653 0.42847,-0.42846 1.4502,-0.92285 1.05468,-0.52734 2.43896,-0.92285 1.41724,-0.42847 3.06519,-0.69214 1.6809,-0.26367 3.42773,-0.26367 2.70264,0 4.94385,0.52734 2.24121,0.52735 3.79028,1.61499 1.58203,1.05469 2.40601,2.63672 0.85693,1.58203 0.85693,3.65845 0,1.25244 -0.39551,2.40601 -0.39551,1.15356 -1.1206,2.10937 -0.7251,0.92285 -1.77979,1.64795 -1.02173,0.7251 -2.37304,1.12061 l -0.033,0.0659 q 1.41723,0.1648 2.63671,0.79102 1.25245,0.62622 2.1753,1.58203 0.95581,0.95581 1.48315,2.24121 0.5603,1.25244 0.5603,2.7356 z"
       style="fill:#d66a2b;fill-opacity:1"
       id="path4221" />
    <path
       d="m 924.646,471.8378 q 0,0.46143 -0.32959,0.7251 -0.32959,0.26367 -1.05469,0.36255 -0.69214,0.13184 -2.07642,0.13184 -1.48315,0 -2.17529,-0.13184 -0.65918,-0.0989 -0.95581,-0.36255 -0.26367,-0.26367 -0.26367,-0.7251 l 0,-2.34009 q -1.81275,1.94458 -4.15283,3.03223 -2.30713,1.08765 -5.14161,1.08765 -2.34008,0 -4.31762,-0.62622 -1.94458,-0.59326 -3.39478,-1.77979 -1.41723,-1.21948 -2.20825,-2.99927 -0.79102,-1.77978 -0.79102,-4.15283 0,-2.5708 0.98877,-4.44946 1.02173,-1.91162 2.99927,-3.1311 2.0105,-1.25245 4.97681,-1.84571 2.96631,-0.59326 6.88843,-0.59326 l 2.86743,0 0,-1.77978 q 0,-1.38428 -0.29663,-2.40601 -0.26368,-1.05469 -0.92286,-1.74683 -0.62622,-0.69213 -1.71386,-1.02172 -1.05469,-0.32959 -2.63672,-0.32959 -2.07642,0 -3.72437,0.46142 -1.61499,0.46143 -2.86743,1.02173 -1.25244,0.5603 -2.10937,1.02173 -0.82398,0.46142 -1.35132,0.46142 -0.36255,0 -0.65918,-0.23071 -0.26367,-0.23071 -0.46143,-0.65918 -0.16479,-0.42847 -0.26367,-1.05469 -0.0989,-0.62622 -0.0989,-1.38427 0,-1.02173 0.1648,-1.61499 0.16479,-0.59327 0.62622,-1.05469 0.46143,-0.49439 1.61499,-1.05469 1.15356,-0.59326 2.70264,-1.08764 1.54907,-0.49439 3.36181,-0.79102 1.84571,-0.32959 3.79029,-0.32959 3.46069,0 5.89965,0.69214 2.47193,0.65918 4.05396,2.07641 1.58203,1.38428 2.30713,3.59253 0.7251,2.20826 0.7251,5.24048 l 0,19.77539 z m -8.14087,-12.59033 -3.16407,0 q -2.01049,0 -3.42773,0.29663 -1.41724,0.29663 -2.30713,0.88989 -0.88989,0.59327 -1.31836,1.4502 -0.39551,0.82397 -0.39551,1.91162 0,1.8457 1.15357,2.90039 1.18652,1.05469 3.26294,1.05469 1.74682,0 3.19702,-0.88989 1.48315,-0.8899 2.99927,-2.60376 l 0,-5.00977 z"
       style="fill:#d66a2b;fill-opacity:1"
       id="path4223" />
    <path
       d="m 981.07178,482.68131 q 0,0.23071 -0.19776,0.39551 -0.16479,0.19775 -0.59326,0.32959 -0.39551,0.13183 -1.05469,0.19775 -0.65918,0.0659 -1.64795,0.0659 -1.05468,0 -1.77978,-0.0659 -0.69214,-0.0659 -1.12061,-0.19775 -0.42846,-0.0989 -0.62622,-0.29663 -0.16479,-0.1648 -0.16479,-0.39551 l 0,-9.85474 -38.59497,0 q -1.21948,0 -1.77979,-0.65918 -0.5603,-0.69214 -0.5603,-2.0105 l 0,-27.85034 q 0,-0.32959 0.19775,-0.5603 0.19776,-0.26367 0.69214,-0.42847 0.49439,-0.16479 1.2854,-0.23071 0.82398,-0.0989 2.04346,-0.0989 1.21948,0 1.97754,0.0989 0.79101,0.0659 1.21948,0.23071 0.46143,0.1648 0.62622,0.42847 0.19776,0.23071 0.19776,0.5603 l 0,23.59863 9.32739,0 0,-23.59863 q 0,-0.32959 0.16479,-0.5603 0.1648,-0.26367 0.56031,-0.42847 0.42846,-0.16479 1.18652,-0.23071 0.79102,-0.0989 1.97754,-0.0989 1.21948,0 2.0105,0.0989 0.79101,0.0659 1.21948,0.23071 0.46143,0.1648 0.65918,0.42847 0.19775,0.23071 0.19775,0.5603 l 0,23.59863 9.3274,0 0,-23.59863 q 0,-0.32959 0.16479,-0.5603 0.19775,-0.26367 0.65918,-0.42847 0.46143,-0.16479 1.21948,-0.23071 0.79102,-0.0989 1.97754,-0.0989 1.21948,0 2.0105,0.0989 0.82397,0.0659 1.2854,0.23071 0.49438,0.1648 0.69214,0.42847 0.23071,0.23071 0.23071,0.5603 l 0,23.59863 3.32886,0 q 0.92285,0 1.31836,0.36255 0.39551,0.32959 0.36255,1.2854 l 0,15.09522 z"
       style="fill:#d66a2b;fill-opacity:1"
       id="path4225" />
    <path
       d="m 1015.481,471.8378 q 0,0.32959 -0.1978,0.56031 -0.1648,0.23071 -0.6262,0.3955 -0.4614,0.13184 -1.2525,0.19776 -0.758,0.0659 -1.9445,0.0659 -1.1866,0 -2.0105,-0.0659 -0.7911,-0.0659 -1.3184,-0.19776 -0.4944,-0.16479 -0.7251,-0.3955 -0.1977,-0.23072 -0.1977,-0.56031 l 0,-13.11767 q 0,-1.38428 0.066,-2.86743 0.099,-1.48316 0.2636,-2.9004 -0.791,1.38428 -1.7138,2.7356 -0.9229,1.31836 -1.8787,2.63672 l -9.92064,13.48022 q -0.29663,0.36255 -0.5603,0.62622 -0.26368,0.23072 -0.69214,0.39551 -0.39551,0.13184 -1.02173,0.1648 -0.62622,0.0659 -1.61499,0.0659 -1.18653,0 -1.94458,-0.0659 -0.7251,-0.0659 -1.18653,-0.19776 -0.42846,-0.16479 -0.62622,-0.3955 -0.16479,-0.26368 -0.16479,-0.59327 l 0,-29.49829 q 0,-0.29663 0.16479,-0.52734 0.19776,-0.26367 0.65918,-0.42847 0.49439,-0.16479 1.25244,-0.23071 0.79102,-0.0989 1.97754,-0.0989 2.34009,0 3.2959,0.32959 0.95581,0.32959 0.95581,0.95581 l 0,13.05176 q 0,1.35132 -0.0989,2.80151 -0.0989,1.4502 -0.26368,2.80152 0.79102,-1.31836 1.61499,-2.60376 0.82398,-1.31836 1.74683,-2.53784 l 10.01949,-13.51319 q 0.2637,-0.36255 0.5603,-0.59326 0.2967,-0.26367 0.7251,-0.39551 0.4615,-0.16479 1.0877,-0.23071 0.6592,-0.0659 1.6809,-0.0659 1.1536,0 1.9116,0.0659 0.7581,0.0659 1.1865,0.23071 0.4615,0.1648 0.6263,0.42847 0.1648,0.26367 0.1648,0.59326 l 0,29.49829 z"
       style="fill:#d66a2b;fill-opacity:1"
       id="path4227" />
    <path
       d="m 1045.6055,444.87735 q 0,1.08765 -0.099,1.81275 -0.066,0.7251 -0.2307,1.15356 -0.1648,0.42847 -0.4285,0.59326 -0.2307,0.1648 -0.5273,0.1648 l -7.4158,0 0,23.13721 q 0,0.32959 -0.1978,0.59326 -0.1977,0.23071 -0.6591,0.39551 -0.4615,0.16479 -1.2854,0.23071 -0.7911,0.0989 -2.0105,0.0989 -1.1866,0 -1.9776,-0.0989 -0.791,-0.0659 -1.2854,-0.23071 -0.4614,-0.1648 -0.6592,-0.39551 -0.1647,-0.26367 -0.1647,-0.59326 l 0,-23.13721 -7.4158,0 q -0.3296,0 -0.5933,-0.1648 -0.2307,-0.19775 -0.3955,-0.62622 -0.1648,-0.42846 -0.2637,-1.18652 -0.066,-0.75806 -0.066,-1.8457 0,-0.98877 0.099,-1.64795 0.099,-0.69214 0.2637,-1.12061 0.1648,-0.42846 0.3955,-0.59326 0.2307,-0.19775 0.5603,-0.19775 l 23.0713,0 q 0.2966,0 0.5273,0.19775 0.2637,0.1648 0.4285,0.59326 0.1648,0.42847 0.2307,1.15357 0.099,0.69214 0.099,1.71386 z"
       style="fill:#d66a2b;fill-opacity:1"
       id="path4229" />
    <path
       d="m 1075.2026,471.8378 q 0,0.46143 -0.3296,0.7251 -0.3295,0.26367 -1.0546,0.36255 -0.6922,0.13184 -2.0765,0.13184 -1.4831,0 -2.1752,-0.13184 -0.6592,-0.0989 -0.9559,-0.36255 -0.2636,-0.26367 -0.2636,-0.7251 l 0,-2.34009 q -1.8128,1.94458 -4.1529,3.03223 -2.3071,1.08765 -5.1416,1.08765 -2.3401,0 -4.3176,-0.62622 -1.9446,-0.59326 -3.3948,-1.77979 -1.4172,-1.21948 -2.2082,-2.99927 -0.791,-1.77978 -0.791,-4.15283 0,-2.5708 0.9887,-4.44946 1.0218,-1.91162 2.9993,-3.1311 2.0105,-1.25245 4.9768,-1.84571 2.9663,-0.59326 6.8884,-0.59326 l 2.8675,0 0,-1.77978 q 0,-1.38428 -0.2967,-2.40601 -0.2636,-1.05469 -0.9228,-1.74683 -0.6262,-0.69213 -1.7139,-1.02172 -1.0547,-0.32959 -2.6367,-0.32959 -2.0764,0 -3.7244,0.46142 -1.615,0.46143 -2.8674,1.02173 -1.2524,0.5603 -2.1094,1.02173 -0.8239,0.46142 -1.3513,0.46142 -0.3625,0 -0.6592,-0.23071 -0.2636,-0.23071 -0.4614,-0.65918 -0.1648,-0.42847 -0.2637,-1.05469 -0.099,-0.62622 -0.099,-1.38427 0,-1.02173 0.1647,-1.61499 0.1648,-0.59327 0.6263,-1.05469 0.4614,-0.49439 1.615,-1.05469 1.1535,-0.59326 2.7026,-1.08764 1.5491,-0.49439 3.3618,-0.79102 1.8457,-0.32959 3.7903,-0.32959 3.4607,0 5.8997,0.69214 2.4719,0.65918 4.0539,2.07641 1.582,1.38428 2.3071,3.59253 0.7251,2.20826 0.7251,5.24048 l 0,19.77539 z m -8.1408,-12.59033 -3.1641,0 q -2.0105,0 -3.4277,0.29663 -1.4173,0.29663 -2.3072,0.88989 -0.8899,0.59327 -1.3183,1.4502 -0.3955,0.82397 -0.3955,1.91162 0,1.8457 1.1535,2.90039 1.1866,1.05469 3.263,1.05469 1.7468,0 3.197,-0.88989 1.4832,-0.8899 2.9993,-2.60376 l 0,-5.00977 z"
       style="fill:#d66a2b;fill-opacity:1"
       id="path4231" />
  </g>
</svg>
